<?xml version="1.0" encoding="utf-8"?>
<!-- Generator: Adobe Illustrator 16.0.3, SVG Export Plug-In . SVG Version: 6.00 Build 0)  -->
<!DOCTYPE svg PUBLIC "-//W3C//DTD SVG 1.1//EN" "http://www.w3.org/Graphics/SVG/1.1/DTD/svg11.dtd">
<svg version="1.1" id="Layer_1" xmlns="http://www.w3.org/2000/svg" xmlns:xlink="http://www.w3.org/1999/xlink" x="0px" y="0px"
	 width="1381.812px" height="108.333px" viewBox="0 0 1381.812 108.333" enable-background="new 0 0 1381.812 108.333"
	 xml:space="preserve">
<g>
	<g>
		<path d="M562.459,32.091l2.023,4.54l2.53-3.288c6.257-8.162,13.966-14.899,17.068-14.899c2.316,0,5.405,13.327,5.405,23.367
			c0,4.846-0.293,5.111-8.175,7.695l-4.073,1.33l2.275,1.958c1.238,1.065,4.048,3.288,6.219,4.938
			c7.695,5.819,7.295,5.127,7.801,13.661l0.453,7.669l-3.928,0.012c-2.33,0.015-6.07,0.8-9.173,1.945
			c-9.56,3.502-9.04,3.834-12.688-8.135c-2.223-7.271-2.676-7.723-4.047-3.928c-0.999,2.755-0.68,3.874,1.531,5.472
			c2.17,1.558,1.61,2.716-2.184,4.554c-2.203,1.111-4.307,2.412-6.285,3.887c-2.981,2.383-9,2.93-13.739,1.279
			c-11.343-3.968-7.442-24.672,6.298-33.484l3.688-2.371l-1.997-3.354c-2.17-3.622-2.13-3.607-9.586-2.116l-2.343,0.465
			l-0.906-6.351c-1.038-7.31-0.904-7.749,4.474-14.272C550.17,14.05,555.576,16.686,562.459,32.091z"/>
		<path d="M633.562,23.545c9.599,3.183,11.796,17.269,5.524,35.535c-0.895,2.738-1.65,5.52-2.263,8.334
			c-3.222,15.325-14.605,22.541-27.573,17.469c-8.321-3.248-13.407-13.646-15.498-31.74c-2.289-19.691,4.939-31.447,21.915-35.668
			c7.376-1.837,9.626-1.438,12.542,2.237C629.594,21.469,631.591,22.906,633.562,23.545z M620.354,39.243
			c-2.609,0-3.209,11.196-1.039,18.919c1.066,3.754,1.665,3.168,3.688-3.635C625.413,46.393,624.175,39.242,620.354,39.243z"/>
	</g>
	<g>
		<path fill="none" stroke="#000000" stroke-width="3" d="M47.504,50.303c0,11.357,1.185,16.615,3.754,16.615
			c1.318,0,2.104,6.298,1.451,11.531c-0.546,4.379-2.25,5.671-7.576,5.684c-0.892,0-3.754,0.666-6.364,1.492
			c-6.91,2.156-7.961,2.023-9.399-1.306c-3.036-6.963-2.037-22.713,2.343-37.491c2.729-9.174,2.703-9.373-0.759-6.018
			c-2.849,2.756-4.886,2.583-10.332-0.865c-5.925-3.755-5.991-6.111-0.346-14.952c6.51-10.225,7.309-10.531,19.105-7.442
			c9.812,2.583,13.633,2.569,18.054-0.04c6.284-3.715,11.783,4.513,8.84,13.22c-3.688,10.905-9.453,15.045-14.073,10.106
			C47.917,36.244,47.504,37.069,47.504,50.303z"/>
		<path fill="none" stroke="#000000" stroke-width="3" d="M67.329,29.848c-0.572-1.824-0.253-2.264,3.741-5.205
			c2.41-1.771,5.419-4.328,6.697-5.686c3.728-3.941,12.582-3.169,14.885,1.278c1.185,2.29,1.171,2.356-2.916,16.069
			c-1.091,3.689-1.397,31.403-1.624,34.506c-0.612,8.693-0.572,8.6-5.885,11.569c-2.649,1.491-5.033,3.036-5.272,3.435
			c-0.865,1.398-2.33,0.706-5.645-2.662l-3.328-3.409l0.279-6.138C68.794,62.102,67.955,31.832,67.329,29.848z"/>
		<path fill="none" stroke="#000000" stroke-width="3" d="M105.255,77.477C92.088,63.697,91.022,59.422,94.538,34.712
			c2.956-20.756,2.543-20.13,12.582-19.172c26.814,2.557,31.967,4.713,30.888,12.941c-0.266,1.957-0.666,7.842-0.905,13.061
			c-0.506,11.063-0.227,10.771-8.135,8.654c-8.188-2.196-8.614-2.636-8.614-8.841c0-9.652-2.796-13.114-7.176-8.867
			c-7.109,6.897-6.111,27.627,1.451,30.223c2.77,0.945,6.857-1.277,9.413-5.112c2.596-3.915,4.194-3.567,6.404,1.411
			c1.997,4.527,7.709,13.074,8.734,13.074c1.758,0,0.187,3.235-3.648,7.47c-7.429,8.202-14.832,10.292-21.315,5.991
			C112.338,84.293,108.304,80.672,105.255,77.477z"/>
		<path fill="none" stroke="#000000" stroke-width="3" d="M201.215,50.303c0,11.357,1.185,16.615,3.754,16.615
			c1.318,0,2.104,6.298,1.451,11.531c-0.546,4.379-2.25,5.671-7.576,5.684c-0.892,0-3.754,0.666-6.364,1.492
			c-6.91,2.156-7.962,2.023-9.4-1.306c-3.036-6.963-2.037-22.713,2.343-37.491c2.729-9.174,2.703-9.373-0.759-6.018
			c-2.849,2.756-4.886,2.583-10.332-0.865c-5.925-3.755-5.991-6.111-0.346-14.952c6.51-10.225,7.309-10.531,19.105-7.442
			c9.812,2.583,13.633,2.569,18.054-0.04c6.284-3.715,11.783,4.513,8.84,13.22c-3.688,10.905-9.453,15.045-14.073,10.106
			C201.628,36.244,201.215,37.069,201.215,50.303z"/>
		<path fill="none" stroke="#000000" stroke-width="3" d="M215.194,77.117c-0.599-1.345,0.107-3.275,4.061-10.984
			c8.028-15.63,9.905-26.348,5.592-31.847c-4.247-5.392,0.493-14.737,7.948-15.67c2.224-0.267,7.296-1.305,11.277-2.304
			c14.672-3.647,16.909-2.263,12.449,7.695l-1.744,3.914l2.25,4.647c9.639,19.903,10.678,43.282,2.343,53.015
			c-2.956,3.436-3.235,3.529-5.073,1.506c-0.732-0.826-4.327-3.329-7.961-5.565l-6.63-4.075l-0.093,4.262
			c-0.04,2.329-0.027,4.553,0.04,4.912C240.171,89.392,216.619,80.232,215.194,77.117z M240.052,49.662
			c-1.997,2.318-1.598,3.329,1.531,3.822c6.71,1.039,7.11,0.933,7.11-1.904c0-1.424-0.905-5.378-2.01-8.801l-2.011-6.203
			l-0.532,3.435C243.606,43.473,241.862,47.573,240.052,49.662L240.052,49.662z M244.938,66.066
			c0.013-1.479-3.235-3.289-4.807-2.677c-1.265,0.479-1.504,3.143-0.679,7.271l0.493,2.476l2.489-2.942
			C243.806,68.583,244.924,66.719,244.938,66.066z"/>
		<path fill="none" stroke="#000000" stroke-width="3" d="M278.143,77.477c-13.167-13.779-14.232-18.055-10.717-42.765
			c2.956-20.756,2.543-20.13,12.582-19.172c26.814,2.557,31.967,4.713,30.888,12.941c-0.266,1.957-0.666,7.842-0.905,13.061
			c-0.506,11.063-0.227,10.771-8.135,8.654c-8.188-2.196-8.614-2.636-8.614-8.841c0-9.652-2.796-13.114-7.176-8.867
			c-7.109,6.897-6.111,27.627,1.451,30.223c2.77,0.945,6.857-1.277,9.413-5.112c2.596-3.915,4.194-3.567,6.404,1.411
			c1.997,4.527,7.709,13.074,8.734,13.074c1.758,0,0.187,3.235-3.648,7.47c-7.429,8.202-14.832,10.292-21.315,5.991
			C285.226,84.293,281.192,80.672,278.143,77.477z"/>
		<path fill="none" stroke="#000000" stroke-width="3" d="M374.103,50.303c0,11.357,1.186,16.615,3.755,16.615
			c1.318,0,2.104,6.298,1.451,11.531c-0.546,4.379-2.25,5.671-7.575,5.684c-0.893,0-3.755,0.666-6.364,1.492
			c-6.91,2.156-7.962,2.023-9.4-1.306c-3.036-6.963-2.037-22.713,2.343-37.491c2.729-9.174,2.703-9.373-0.759-6.018
			c-2.849,2.756-4.886,2.583-10.332-0.865c-5.925-3.755-5.991-6.111-0.346-14.952c6.51-10.225,7.309-10.531,19.105-7.442
			c9.813,2.583,13.634,2.569,18.054-0.04c6.284-3.715,11.782,4.513,8.84,13.22c-3.688,10.905-9.452,15.045-14.072,10.106
			C374.516,36.244,374.103,37.069,374.103,50.303z"/>
		<path fill="none" stroke="#000000" stroke-width="3" d="M433.317,23.546c9.6,3.183,11.796,17.269,5.525,35.535
			c-0.896,2.737-1.65,5.52-2.264,8.335c-3.222,15.324-14.605,22.54-27.573,17.468c-8.321-3.249-13.407-13.647-15.497-31.74
			c-2.29-19.692,4.939-31.448,21.915-35.668c7.376-1.837,9.626-1.438,12.541,2.238C429.35,21.469,431.347,22.907,433.317,23.546z
			 M422.76,54.527c2.409-8.135,1.172-15.283-2.649-15.283c-2.61,0-3.209,11.196-1.039,18.918
			C420.137,61.918,420.735,61.332,422.76,54.527L422.76,54.527z"/>
		<path fill="none" stroke="#000000" stroke-width="3" d="M448.858,50.014c-7.935-8.307-3.675-16.988,15.711-32.059
			c4.313-3.355,5.365-3.116,9.146,2.09c1.797,2.463,3.382,4.473,3.528,4.473c0.133,0,1.118-0.398,2.17-0.879
			c2.77-1.251,3.182-0.412,3.781,7.723l0.52,7.217l-7.949,0.545c-8.8,0.6-10.171,0.146-10.171-3.341
			c0-2.996-0.706-3.209-2.703-0.826c-2.529,2.995-2.344,3.396,2.756,6.124c4.061,2.156,4.526,2.637,4.194,4.34
			c-2.131,11.225-2.157,11.277-4.381,11.277c-2.05,0-2.117,0.119-2.104,3.928c0.026,11.064,5.845,4.341,8.534-9.865
			c1.571-8.241,1.052-8.256,9.213,0.318c9.772,10.293,9.479,9.747,7.775,14.699c-5.564,16.189-17.88,24.244-31.341,20.477
			c-7.589-2.117-13.301-6.311-15.098-11.09c-2.529-6.697,0.546-16.988,6.178-20.663l2.782-1.825L448.858,50.014z"/>
	</g>
	<circle cx="514.098" cy="48.611" r="9.375"/>
	<circle cx="667.181" cy="48.611" r="9.375"/>
</g>
<g>
	<g>
		<path d="M1238.459,32.091l2.023,4.54l2.53-3.288c6.257-8.162,13.966-14.899,17.068-14.899c2.316,0,5.405,13.327,5.405,23.367
			c0,4.846-0.293,5.111-8.175,7.695l-4.073,1.33l2.275,1.958c1.238,1.065,4.048,3.288,6.219,4.938
			c7.695,5.819,7.295,5.127,7.801,13.661l0.453,7.669l-3.928,0.012c-2.33,0.015-6.07,0.8-9.173,1.945
			c-9.56,3.502-9.04,3.834-12.688-8.135c-2.223-7.271-2.676-7.723-4.047-3.928c-0.999,2.755-0.68,3.874,1.531,5.472
			c2.17,1.558,1.61,2.716-2.184,4.554c-2.203,1.111-4.307,2.412-6.285,3.887c-2.981,2.383-9,2.93-13.739,1.279
			c-11.343-3.968-7.442-24.672,6.298-33.484l3.688-2.371l-1.997-3.354c-2.17-3.622-2.13-3.607-9.586-2.116l-2.343,0.465
			l-0.906-6.351c-1.038-7.31-0.904-7.749,4.474-14.272C1226.17,14.05,1231.576,16.686,1238.459,32.091z"/>
		<path d="M1309.562,23.545c9.599,3.183,11.796,17.269,5.524,35.535c-0.895,2.738-1.65,5.52-2.263,8.334
			c-3.222,15.325-14.605,22.541-27.573,17.469c-8.321-3.248-13.407-13.646-15.498-31.74c-2.289-19.691,4.939-31.447,21.915-35.668
			c7.376-1.837,9.626-1.438,12.542,2.237C1305.594,21.469,1307.591,22.906,1309.562,23.545z M1296.354,39.243
			c-2.609,0-3.209,11.196-1.039,18.919c1.066,3.754,1.665,3.168,3.688-3.635C1301.413,46.393,1300.175,39.242,1296.354,39.243z"/>
	</g>
	<g>
		<path fill="none" stroke="#000000" stroke-width="3" d="M723.504,50.303c0,11.357,1.185,16.615,3.754,16.615
			c1.318,0,2.104,6.298,1.451,11.531c-0.545,4.379-2.25,5.671-7.575,5.684c-0.892,0-3.755,0.666-6.364,1.492
			c-6.91,2.156-7.961,2.023-9.399-1.306c-3.036-6.963-2.037-22.713,2.343-37.491c2.73-9.174,2.703-9.373-0.758-6.018
			c-2.85,2.756-4.887,2.583-10.332-0.865c-5.925-3.755-5.991-6.111-0.346-14.952c6.51-10.225,7.309-10.531,19.105-7.442
			c9.812,2.583,13.633,2.569,18.053-0.04c6.285-3.715,11.783,4.513,8.841,13.22c-3.688,10.905-9.453,15.045-14.073,10.106
			C723.916,36.244,723.504,37.069,723.504,50.303z"/>
		<path fill="none" stroke="#000000" stroke-width="3" d="M743.329,29.848c-0.572-1.824-0.253-2.264,3.741-5.205
			c2.41-1.771,5.419-4.328,6.697-5.686c3.728-3.941,12.582-3.169,14.885,1.278c1.185,2.29,1.172,2.356-2.916,16.069
			c-1.091,3.689-1.396,31.403-1.623,34.506c-0.613,8.693-0.572,8.6-5.885,11.569c-2.65,1.491-5.033,3.036-5.273,3.435
			c-0.865,1.398-2.329,0.706-5.645-2.662l-3.328-3.409l0.279-6.138C744.795,62.102,743.955,31.832,743.329,29.848z"/>
		<path fill="none" stroke="#000000" stroke-width="3" d="M781.255,77.477c-13.167-13.779-14.232-18.055-10.718-42.765
			c2.956-20.756,2.543-20.13,12.582-19.172c26.814,2.557,31.967,4.713,30.889,12.941c-0.267,1.957-0.666,7.842-0.906,13.061
			c-0.506,11.063-0.227,10.771-8.135,8.654c-8.188-2.196-8.613-2.636-8.613-8.841c0-9.652-2.797-13.114-7.177-8.867
			c-7.109,6.897-6.11,27.627,1.451,30.223c2.77,0.945,6.856-1.277,9.413-5.112c2.596-3.915,4.193-3.567,6.404,1.411
			c1.996,4.527,7.709,13.074,8.733,13.074c1.758,0,0.187,3.235-3.647,7.47c-7.43,8.202-14.832,10.292-21.316,5.991
			C788.338,84.293,784.305,80.672,781.255,77.477z"/>
		<path fill="none" stroke="#000000" stroke-width="3" d="M877.215,50.303c0,11.357,1.186,16.615,3.755,16.615
			c1.317,0,2.104,6.298,1.451,11.531c-0.546,4.379-2.25,5.671-7.575,5.684c-0.893,0-3.755,0.666-6.364,1.492
			c-6.91,2.156-7.962,2.023-9.399-1.306c-3.036-6.963-2.037-22.713,2.343-37.491c2.729-9.174,2.702-9.373-0.759-6.018
			c-2.85,2.756-4.887,2.583-10.332-0.865c-5.924-3.755-5.99-6.111-0.346-14.952c6.51-10.225,7.309-10.531,19.105-7.442
			c9.813,2.583,13.633,2.569,18.054-0.04c6.284-3.715,11.782,4.513,8.841,13.22c-3.688,10.905-9.453,15.045-14.073,10.106
			C877.628,36.244,877.215,37.069,877.215,50.303z"/>
		<path fill="none" stroke="#000000" stroke-width="3" d="M891.194,77.117c-0.599-1.345,0.106-3.275,4.062-10.984
			c8.027-15.63,9.904-26.348,5.592-31.847c-4.248-5.392,0.492-14.737,7.947-15.67c2.225-0.267,7.297-1.305,11.277-2.304
			c14.672-3.647,16.908-2.263,12.449,7.695l-1.744,3.914l2.25,4.647c9.639,19.903,10.678,43.282,2.343,53.015
			c-2.956,3.436-3.235,3.529-5.073,1.506c-0.731-0.826-4.326-3.329-7.961-5.565l-6.631-4.075l-0.093,4.262
			c-0.04,2.329-0.026,4.553,0.04,4.912C916.172,89.392,892.619,80.232,891.194,77.117z M916.052,49.662
			c-1.997,2.318-1.598,3.329,1.53,3.822c6.711,1.039,7.11,0.933,7.11-1.904c0-1.424-0.905-5.378-2.011-8.801l-2.01-6.203
			l-0.533,3.435C919.606,43.473,917.862,47.573,916.052,49.662L916.052,49.662z M920.938,66.066
			c0.014-1.479-3.234-3.289-4.807-2.677c-1.264,0.479-1.504,3.143-0.678,7.271l0.492,2.476l2.489-2.942
			C919.807,68.583,920.924,66.719,920.938,66.066z"/>
		<path fill="none" stroke="#000000" stroke-width="3" d="M954.143,77.477c-13.167-13.779-14.232-18.055-10.717-42.765
			c2.955-20.756,2.543-20.13,12.581-19.172c26.813,2.557,31.967,4.713,30.888,12.941c-0.266,1.957-0.665,7.842-0.904,13.061
			c-0.506,11.063-0.227,10.771-8.135,8.654c-8.188-2.196-8.615-2.636-8.615-8.841c0-9.652-2.795-13.114-7.176-8.867
			c-7.109,6.897-6.111,27.627,1.451,30.223c2.77,0.945,6.857-1.277,9.413-5.112c2.597-3.915,4.194-3.567,6.403,1.411
			c1.998,4.527,7.709,13.074,8.734,13.074c1.758,0,0.187,3.235-3.648,7.47c-7.429,8.202-14.831,10.292-21.314,5.991
			C961.226,84.293,957.191,80.672,954.143,77.477z"/>
		<path fill="none" stroke="#000000" stroke-width="3" d="M1050.103,50.303c0,11.357,1.186,16.615,3.755,16.615
			c1.318,0,2.104,6.298,1.451,11.531c-0.546,4.379-2.25,5.671-7.575,5.684c-0.893,0-3.755,0.666-6.364,1.492
			c-6.91,2.156-7.962,2.023-9.4-1.306c-3.035-6.963-2.037-22.713,2.344-37.491c2.729-9.174,2.703-9.373-0.759-6.018
			c-2.849,2.756-4.886,2.583-10.331-0.865c-5.926-3.755-5.992-6.111-0.347-14.952c6.511-10.225,7.31-10.531,19.105-7.442
			c9.813,2.583,13.634,2.569,18.054-0.04c6.284-3.715,11.782,4.513,8.84,13.22c-3.688,10.905-9.452,15.045-14.072,10.106
			C1050.516,36.244,1050.103,37.069,1050.103,50.303z"/>
		<path fill="none" stroke="#000000" stroke-width="3" d="M1109.317,23.546c9.6,3.183,11.796,17.269,5.525,35.535
			c-0.896,2.737-1.65,5.52-2.264,8.335c-3.222,15.324-14.605,22.54-27.573,17.468c-8.321-3.249-13.407-13.647-15.497-31.74
			c-2.29-19.692,4.939-31.448,21.915-35.668c7.376-1.837,9.626-1.438,12.541,2.238C1105.35,21.469,1107.347,22.907,1109.317,23.546z
			 M1098.76,54.527c2.409-8.135,1.172-15.283-2.649-15.283c-2.61,0-3.209,11.196-1.039,18.918
			C1096.137,61.918,1096.735,61.332,1098.76,54.527L1098.76,54.527z"/>
		<path fill="none" stroke="#000000" stroke-width="3" d="M1124.858,50.014c-7.935-8.307-3.675-16.988,15.711-32.059
			c4.313-3.355,5.365-3.116,9.146,2.09c1.797,2.463,3.382,4.473,3.528,4.473c0.133,0,1.118-0.398,2.17-0.879
			c2.77-1.251,3.182-0.412,3.781,7.723l0.52,7.217l-7.949,0.545c-8.8,0.6-10.171,0.146-10.171-3.341
			c0-2.996-0.706-3.209-2.703-0.826c-2.529,2.995-2.344,3.396,2.756,6.124c4.061,2.156,4.526,2.637,4.194,4.34
			c-2.131,11.225-2.157,11.277-4.381,11.277c-2.05,0-2.117,0.119-2.104,3.928c0.026,11.064,5.845,4.341,8.534-9.865
			c1.571-8.241,1.052-8.256,9.213,0.318c9.772,10.293,9.479,9.747,7.775,14.699c-5.564,16.189-17.88,24.244-31.341,20.477
			c-7.589-2.117-13.301-6.311-15.098-11.09c-2.529-6.697,0.546-16.988,6.178-20.663l2.782-1.825L1124.858,50.014z"/>
	</g>
	<circle cx="1190.098" cy="48.611" r="9.375"/>
	<circle cx="1343.181" cy="48.611" r="9.375"/>
</g>
<g>
</g>
<g>
</g>
<g>
</g>
<g>
</g>
<g>
</g>
<g>
</g>
</svg>
